<svg xmlns="http://www.w3.org/2000/svg" viewBox="0 0 298.02 329.03"><title>github</title><g id="Layer_2" data-name="Layer 2"><g id="Layer_1-2" data-name="Layer 1"><path d="M120,220.37c-6.36-1-12.27-1.88-18.12-3-12.69-2.41-24.92-6.24-36.28-12.53-18.94-10.49-31.76-26.13-38-46.74-7-23-9.27-46.26-2.24-69.71A74.76,74.76,0,0,1,41.4,59.94c1.6-1.79,2-3.18,1.2-5.59-5.86-17.47-4-34.72,2.27-51.68A4.45,4.45,0,0,1,48.48.47c7,1,14.42,1.18,20.8,3.81C80.53,8.91,91.2,15,102,20.71c2.35,1.25,4.26,1.84,7,1.16,34-8.52,68-8.34,102-.05a8.4,8.4,0,0,0,5.79-1c13.83-8.62,28-16.49,44.19-19.71,11.72-2.32,12.73-1.8,15.84,9.52,4,14.65,4.34,29.31-.05,44a5.24,5.24,0,0,0,.63,4.25c15.21,17.49,21.55,37.92,20.61,60.88-.64,15.82-2.75,31.34-9,46-10.48,24.61-29.52,39.54-54.61,46.94-10.6,3.13-21.68,4.62-32.55,6.85-.68.14-1.39.2-2.5.36,1.94,2.44,3.76,4.45,5.27,6.67,6.49,9.55,8.72,20.38,8.79,31.66.11,19.24-.12,38.49-.18,57.73,0,7,1.1,8.67,7.16,11.86L98.2,329c7.39-2.24,8.13-7.95,8-14.46-.22-10.49-.06-21-.06-31.94-5.46.67-10.33,1.47-15.23,1.84-18.58,1.4-35.75-2-49-16.28a51.42,51.42,0,0,1-9-14.07C27,240.68,19.6,228.7,6.62,221a21.91,21.91,0,0,1-5.06-4.41c-2.62-3-1.91-5.19,1.89-6.3,5-1.46,9.92-.73,14.73.85,11,3.59,18.7,11.06,25.08,20.4,3.22,4.71,6.68,9.47,10.91,13.22,12.73,11.29,27.64,12,43.3,7.62.24-.06.47-.2.71-.24,5.56-.93,8.7-3.55,9.55-9.77C108.89,233.86,113.74,226.87,120,220.37Z" fill="white"/></g></g></svg>